<svg width="360" height="106" viewBox="0 0 360 106" fill="none" xmlns="http://www.w3.org/2000/svg">
<path d="M0 66L360 66V0L0 0V66Z" fill="#AAA3BF"/>
<path d="M360 102H328.177V54L360 54V102Z" fill="#AAA3BF"/>
<mask id="mask0_682_394" style="mask-type:luminance" maskUnits="userSpaceOnUse" x="328" y="54" width="32" height="48">
<path d="M360 102H328.177V54L360 54V102Z" fill="white"/>
</mask>
<g mask="url(#mask0_682_394)">
<path d="M328.177 102H326.177V104H328.177V102ZM360 100H328.177V104H360V100ZM330.177 102V54H326.177V102H330.177Z" fill="white"/>
</g>
<path d="M198.232 80H166.409V32L198.232 32V80Z" fill="#AAA3BF"/>
<mask id="mask1_682_394" style="mask-type:luminance" maskUnits="userSpaceOnUse" x="166" y="32" width="33" height="48">
<path d="M198.232 80H166.409V32L198.232 32V80Z" fill="white"/>
</mask>
<g mask="url(#mask1_682_394)">
<path d="M198.232 80V82H200.232V80H198.232ZM166.409 80H164.409V82H166.409V80ZM198.232 78H166.409V82H198.232V78ZM168.409 80V32H164.409V80H168.409ZM196.232 32V80H200.232V32H196.232Z" fill="white"/>
</g>
<path d="M31.823 76H0L0 28L31.823 28L31.823 76Z" fill="#AAA3BF"/>
<mask id="mask2_682_394" style="mask-type:luminance" maskUnits="userSpaceOnUse" x="0" y="28" width="32" height="48">
<path d="M31.823 76H0L0 28L31.823 28L31.823 76Z" fill="white"/>
</mask>
<g mask="url(#mask2_682_394)">
<path d="M31.823 76V78H33.823V76H31.823ZM31.823 74H0V78H31.823V74ZM29.823 28L29.823 76H33.823L33.823 28H29.823Z" fill="white"/>
</g>
<path d="M111.381 90H79.558V42L111.381 42V90Z" fill="#AAA3BF"/>
<mask id="mask3_682_394" style="mask-type:luminance" maskUnits="userSpaceOnUse" x="79" y="42" width="33" height="48">
<path d="M111.381 90H79.558V42L111.381 42V90Z" fill="white"/>
</mask>
<g mask="url(#mask3_682_394)">
<path d="M111.381 90V92H113.381V90H111.381ZM79.558 90H77.558V92H79.558V90ZM111.381 88H79.558V92H111.381V88ZM81.558 90V42H77.558V90H81.558ZM109.381 42V90H113.381V42H109.381Z" fill="white"/>
</g>
<path d="M280.442 106H245.967V54L280.442 54V106Z" fill="#AAA3BF"/>
<mask id="mask4_682_394" style="mask-type:luminance" maskUnits="userSpaceOnUse" x="245" y="54" width="36" height="52">
<path d="M280.442 106H245.967V54L280.442 54V106Z" fill="white"/>
</mask>
<g mask="url(#mask4_682_394)">
<path d="M280.442 106V108H282.442V106H280.442ZM245.967 106H243.967V108H245.967V106ZM280.442 104H245.967V108H280.442V104ZM247.967 106V54H243.967V106H247.967ZM278.442 54V106H282.442V54H278.442Z" fill="white"/>
</g>
<path d="M167.735 100H133.26V48L167.735 48V100Z" fill="#AAA3BF"/>
<mask id="mask5_682_394" style="mask-type:luminance" maskUnits="userSpaceOnUse" x="133" y="48" width="35" height="52">
<path d="M167.735 100H133.26V48L167.735 48V100Z" fill="white"/>
</mask>
<g mask="url(#mask5_682_394)">
<path d="M167.735 100V102H169.735V100H167.735ZM133.26 100H131.26V102H133.26V100ZM167.735 98H133.26V102H167.735V98ZM135.26 100V48H131.26V100H135.26ZM165.735 48V100H169.735V48H165.735Z" fill="white"/>
</g>
<path d="M306.298 95H279.116V54H306.298V95Z" fill="#AAA3BF"/>
<mask id="mask6_682_394" style="mask-type:luminance" maskUnits="userSpaceOnUse" x="279" y="54" width="28" height="41">
<path d="M306.298 95H279.116V54H306.298V95Z" fill="white"/>
</mask>
<g mask="url(#mask6_682_394)">
<path d="M306.298 95V97H308.298V95H306.298ZM279.116 95H277.116V97H279.116V95ZM306.298 93H279.116V97H306.298V93ZM281.116 95V54L277.116 54V95H281.116ZM304.298 54V95H308.298V54H304.298Z" fill="white"/>
</g>
<path d="M80.884 83H53.702V42H80.884V83Z" fill="#AAA3BF"/>
<mask id="mask7_682_394" style="mask-type:luminance" maskUnits="userSpaceOnUse" x="53" y="42" width="28" height="41">
<path d="M80.884 83H53.702V42H80.884V83Z" fill="white"/>
</mask>
<g mask="url(#mask7_682_394)">
<path d="M80.884 83V85H82.884V83H80.884ZM53.702 83H51.702V85H53.702V83ZM80.884 81H53.702V85H80.884V81ZM55.702 83V42L51.702 42V83H55.702ZM78.884 42V83H82.884V42H78.884Z" fill="white"/>
</g>
<path d="M224.088 96H196.906V55H224.088V96Z" fill="#AAA3BF"/>
<mask id="mask8_682_394" style="mask-type:luminance" maskUnits="userSpaceOnUse" x="196" y="55" width="29" height="41">
<path d="M224.088 96H196.906V55H224.088V96Z" fill="white"/>
</mask>
<g mask="url(#mask8_682_394)">
<path d="M224.088 96V98H226.088V96H224.088ZM196.906 96H194.906V98H196.906V96ZM224.088 94H196.906V98H224.088V94ZM198.906 96V55L194.906 55V96H198.906ZM222.088 55V96H226.088V55H222.088Z" fill="white"/>
</g>
<path d="M329.503 81H304.972V44H329.503V81Z" fill="#AAA3BF"/>
<mask id="mask9_682_394" style="mask-type:luminance" maskUnits="userSpaceOnUse" x="304" y="44" width="26" height="37">
<path d="M329.503 81H304.972V44H329.503V81Z" fill="white"/>
</mask>
<g mask="url(#mask9_682_394)">
<path d="M329.503 81V83H331.503V81H329.503ZM304.972 81H302.972V83H304.972V81ZM329.503 79H304.972V83H329.503V79ZM306.972 81V44H302.972V81H306.972ZM327.503 44V81H331.503V44H327.503Z" fill="white"/>
</g>
<path d="M134.586 73H110.055V36H134.586V73Z" fill="#AAA3BF"/>
<mask id="mask10_682_394" style="mask-type:luminance" maskUnits="userSpaceOnUse" x="110" y="36" width="25" height="37">
<path d="M134.586 73H110.055V36H134.586V73Z" fill="white"/>
</mask>
<g mask="url(#mask10_682_394)">
<path d="M134.586 73V75H136.586V73H134.586ZM110.055 73H108.055V75H110.055V73ZM134.586 71H110.055V75H134.586V71ZM112.055 73V36H108.055V73H112.055ZM132.586 36V73H136.586V36H132.586Z" fill="white"/>
</g>
<path d="M55.028 106H30.497L30.497 54H55.028L55.028 106Z" fill="#AAA3BF"/>
<mask id="mask11_682_394" style="mask-type:luminance" maskUnits="userSpaceOnUse" x="30" y="54" width="26" height="52">
<path d="M55.028 106H30.497L30.497 54H55.028L55.028 106Z" fill="white"/>
</mask>
<g mask="url(#mask11_682_394)">
<path d="M55.028 106V108H57.028V106H55.028ZM30.497 106H28.497V108H30.497V106ZM55.028 104H30.497V108H55.028V104ZM32.497 106L32.497 54H28.497L28.497 106H32.497ZM53.028 54L53.028 106H57.028L57.028 54H53.028Z" fill="white"/>
</g>
<path d="M247.293 85H222.762V48H247.293V85Z" fill="#AAA3BF"/>
<mask id="mask12_682_394" style="mask-type:luminance" maskUnits="userSpaceOnUse" x="222" y="48" width="26" height="37">
<path d="M247.293 85H222.762V48H247.293V85Z" fill="white"/>
</mask>
<g mask="url(#mask12_682_394)">
<path d="M247.293 85V87H249.293V85H247.293ZM222.762 85H220.762V87H222.762V85ZM247.293 83H222.762V87H247.293V83ZM224.762 85V48H220.762V85H224.762ZM245.293 48V85H249.293V48H245.293Z" fill="white"/>
</g>
</svg>
