<svg width="360" height="106" viewBox="0 0 360 106" fill="none" xmlns="http://www.w3.org/2000/svg">
<rect width="360" height="66" transform="translate(0 40)" fill="#AAA3BF"/>
<mask id="path-1-inside-1_160_160" fill="white">
<path d="M0 4H31.8232V52H0V4Z"/>
</mask>
<path d="M0 4H31.8232V52H0V4Z" fill="#AAA3BF"/>
<path d="M31.8232 4H33.8232V2H31.8232V4ZM0 6H31.8232V2H0V6ZM29.8232 4V52H33.8232V4H29.8232Z" fill="white" mask="url(#path-1-inside-1_160_160)"/>
<mask id="path-3-inside-2_160_160" fill="white">
<path d="M161.768 26H193.591V74H161.768V26Z"/>
</mask>
<path d="M161.768 26H193.591V74H161.768V26Z" fill="#AAA3BF"/>
<path d="M161.768 26V24H159.768V26H161.768ZM193.591 26H195.591V24H193.591V26ZM161.768 28H193.591V24H161.768V28ZM191.591 26V74H195.591V26H191.591ZM163.768 74V26H159.768V74H163.768Z" fill="white" mask="url(#path-3-inside-2_160_160)"/>
<mask id="path-5-inside-3_160_160" fill="white">
<path d="M328.177 30H360V78H328.177V30Z"/>
</mask>
<path d="M328.177 30H360V78H328.177V30Z" fill="#AAA3BF"/>
<path d="M328.177 30V28H326.177V30H328.177ZM328.177 32H360V28H328.177V32ZM330.177 78V30H326.177V78H330.177Z" fill="white" mask="url(#path-5-inside-3_160_160)"/>
<mask id="path-7-inside-4_160_160" fill="white">
<path d="M248.619 16H280.442V64H248.619V16Z"/>
</mask>
<path d="M248.619 16H280.442V64H248.619V16Z" fill="#AAA3BF"/>
<path d="M248.619 16V14H246.619V16H248.619ZM280.442 16H282.442V14H280.442V16ZM248.619 18H280.442V14H248.619V18ZM278.442 16V64H282.442V16H278.442ZM250.619 64V16H246.619V64H250.619Z" fill="white" mask="url(#path-7-inside-4_160_160)"/>
<mask id="path-9-inside-5_160_160" fill="white">
<path d="M79.5581 0H114.033V52H79.5581V0Z"/>
</mask>
<path d="M79.5581 0H114.033V52H79.5581V0Z" fill="#AAA3BF"/>
<path d="M79.5581 0V-2H77.5581V0H79.5581ZM114.033 0H116.033V-2H114.033V0ZM79.5581 2H114.033V-2H79.5581V2ZM112.033 0V52H116.033V0H112.033ZM81.5581 52V0H77.5581V52H81.5581Z" fill="white" mask="url(#path-9-inside-5_160_160)"/>
<mask id="path-11-inside-6_160_160" fill="white">
<path d="M192.265 6H226.74V58H192.265V6Z"/>
</mask>
<path d="M192.265 6H226.74V58H192.265V6Z" fill="#AAA3BF"/>
<path d="M192.265 6V4H190.265V6H192.265ZM226.74 6H228.74V4H226.74V6ZM192.265 8H226.74V4H192.265V8ZM224.74 6V58H228.74V6H224.74ZM194.265 58V6H190.265V58H194.265Z" fill="white" mask="url(#path-11-inside-6_160_160)"/>
<mask id="path-13-inside-7_160_160" fill="white">
<path d="M53.7017 11H80.884V52H53.7017V11Z"/>
</mask>
<path d="M53.7017 11H80.884V52H53.7017V11Z" fill="#AAA3BF"/>
<path d="M53.7017 11V9H51.7017V11H53.7017ZM80.884 11H82.884V9H80.884V11ZM53.7017 13H80.884V9H53.7017V13ZM78.884 11V52H82.884V11H78.884ZM55.7017 52V11H51.7017V52H55.7017Z" fill="white" mask="url(#path-13-inside-7_160_160)"/>
<mask id="path-15-inside-8_160_160" fill="white">
<path d="M279.116 23H306.298V64H279.116V23Z"/>
</mask>
<path d="M279.116 23H306.298V64H279.116V23Z" fill="#AAA3BF"/>
<path d="M279.116 23V21H277.116V23H279.116ZM306.298 23H308.298V21H306.298V23ZM279.116 25H306.298V21H279.116V25ZM304.298 23V64H308.298V23H304.298ZM281.116 64V23H277.116V64H281.116Z" fill="white" mask="url(#path-15-inside-8_160_160)"/>
<mask id="path-17-inside-9_160_160" fill="white">
<path d="M135.912 10H163.094V51H135.912V10Z"/>
</mask>
<path d="M135.912 10H163.094V51H135.912V10Z" fill="#AAA3BF"/>
<path d="M135.912 10V8H133.912V10H135.912ZM163.094 10H165.094V8H163.094V10ZM135.912 12H163.094V8H135.912V12ZM161.094 10V51H165.094V10H161.094ZM137.912 51V10H133.912V51H137.912Z" fill="white" mask="url(#path-17-inside-9_160_160)"/>
<mask id="path-19-inside-10_160_160" fill="white">
<path d="M30.4973 25H55.0277V62H30.4973V25Z"/>
</mask>
<path d="M30.4973 25H55.0277V62H30.4973V25Z" fill="#AAA3BF"/>
<path d="M30.4973 25V23H28.4973V25H30.4973ZM55.0277 25H57.0277V23H55.0277V25ZM30.4973 27H55.0277V23H30.4973V27ZM53.0277 25V62H57.0277V25H53.0277ZM32.4973 62V25H28.4973V62H32.4973Z" fill="white" mask="url(#path-19-inside-10_160_160)"/>
<mask id="path-21-inside-11_160_160" fill="white">
<path d="M225.414 33H249.945V70H225.414V33Z"/>
</mask>
<path d="M225.414 33H249.945V70H225.414V33Z" fill="#AAA3BF"/>
<path d="M225.414 33V31H223.414V33H225.414ZM249.945 33H251.945V31H249.945V33ZM225.414 35H249.945V31H225.414V35ZM247.945 33V70H251.945V33H247.945ZM227.414 70V33H223.414V70H227.414Z" fill="white" mask="url(#path-21-inside-11_160_160)"/>
<mask id="path-23-inside-12_160_160" fill="white">
<path d="M304.972 0H329.503V52H304.972V0Z"/>
</mask>
<path d="M304.972 0H329.503V52H304.972V0Z" fill="#AAA3BF"/>
<path d="M304.972 0V-2H302.972V0H304.972ZM329.503 0H331.503V-2H329.503V0ZM304.972 2H329.503V-2H304.972V2ZM327.503 0V52H331.503V0H327.503ZM306.972 52V0H302.972V52H306.972Z" fill="white" mask="url(#path-23-inside-12_160_160)"/>
<mask id="path-25-inside-13_160_160" fill="white">
<path d="M112.707 21H137.238V58H112.707V21Z"/>
</mask>
<path d="M112.707 21H137.238V58H112.707V21Z" fill="#AAA3BF"/>
<path d="M112.707 21V19H110.707V21H112.707ZM137.238 21H139.238V19H137.238V21ZM112.707 23H137.238V19H112.707V23ZM135.238 21V58H139.238V21H135.238ZM114.707 58V21H110.707V58H114.707Z" fill="white" mask="url(#path-25-inside-13_160_160)"/>
</svg>
