<svg width="360" height="1025" viewBox="0 0 360 1025" fill="none" xmlns="http://www.w3.org/2000/svg">
<rect width="360" height="66" transform="translate(0 40)" fill="#AAA3BF"/>
<mask id="path-1-inside-1_232_122" fill="white">
<path d="M0 4H31.8232V52H0V4Z"/>
</mask>
<path d="M0 4H31.8232V52H0V4Z" fill="#AAA3BF"/>
<path d="M31.8232 4H33.8232V2H31.8232V4ZM0 6H31.8232V2H0V6ZM29.8232 4V52H33.8232V4H29.8232Z" fill="white" mask="url(#path-1-inside-1_232_122)"/>
<mask id="path-3-inside-2_232_122" fill="white">
<path d="M161.768 26H193.591V74H161.768V26Z"/>
</mask>
<path d="M161.768 26H193.591V74H161.768V26Z" fill="#AAA3BF"/>
<path d="M161.768 26V24H159.768V26H161.768ZM193.591 26H195.591V24H193.591V26ZM161.768 28H193.591V24H161.768V28ZM191.591 26V74H195.591V26H191.591ZM163.768 74V26H159.768V74H163.768Z" fill="white" mask="url(#path-3-inside-2_232_122)"/>
<mask id="path-5-inside-3_232_122" fill="white">
<path d="M328.177 30H360V78H328.177V30Z"/>
</mask>
<path d="M328.177 30H360V78H328.177V30Z" fill="#AAA3BF"/>
<path d="M328.177 30V28H326.177V30H328.177ZM328.177 32H360V28H328.177V32ZM330.177 78V30H326.177V78H330.177Z" fill="white" mask="url(#path-5-inside-3_232_122)"/>
<mask id="path-7-inside-4_232_122" fill="white">
<path d="M248.619 16H280.442V64H248.619V16Z"/>
</mask>
<path d="M248.619 16H280.442V64H248.619V16Z" fill="#AAA3BF"/>
<path d="M248.619 16V14H246.619V16H248.619ZM280.442 16H282.442V14H280.442V16ZM248.619 18H280.442V14H248.619V18ZM278.442 16V64H282.442V16H278.442ZM250.619 64V16H246.619V64H250.619Z" fill="white" mask="url(#path-7-inside-4_232_122)"/>
<mask id="path-9-inside-5_232_122" fill="white">
<path d="M79.5581 0H114.033V52H79.5581V0Z"/>
</mask>
<path d="M79.5581 0H114.033V52H79.5581V0Z" fill="#AAA3BF"/>
<path d="M79.5581 0V-2H77.5581V0H79.5581ZM114.033 0H116.033V-2H114.033V0ZM79.5581 2H114.033V-2H79.5581V2ZM112.033 0V52H116.033V0H112.033ZM81.5581 52V0H77.5581V52H81.5581Z" fill="white" mask="url(#path-9-inside-5_232_122)"/>
<mask id="path-11-inside-6_232_122" fill="white">
<path d="M192.265 6H226.74V58H192.265V6Z"/>
</mask>
<path d="M192.265 6H226.74V58H192.265V6Z" fill="#AAA3BF"/>
<path d="M192.265 6V4H190.265V6H192.265ZM226.74 6H228.74V4H226.74V6ZM192.265 8H226.74V4H192.265V8ZM224.74 6V58H228.74V6H224.74ZM194.265 58V6H190.265V58H194.265Z" fill="white" mask="url(#path-11-inside-6_232_122)"/>
<mask id="path-13-inside-7_232_122" fill="white">
<path d="M53.7017 11H80.884V52H53.7017V11Z"/>
</mask>
<path d="M53.7017 11H80.884V52H53.7017V11Z" fill="#AAA3BF"/>
<path d="M53.7017 11V9H51.7017V11H53.7017ZM80.884 11H82.884V9H80.884V11ZM53.7017 13H80.884V9H53.7017V13ZM78.884 11V52H82.884V11H78.884ZM55.7017 52V11H51.7017V52H55.7017Z" fill="white" mask="url(#path-13-inside-7_232_122)"/>
<mask id="path-15-inside-8_232_122" fill="white">
<path d="M279.116 23H306.298V64H279.116V23Z"/>
</mask>
<path d="M279.116 23H306.298V64H279.116V23Z" fill="#AAA3BF"/>
<path d="M279.116 23V21H277.116V23H279.116ZM306.298 23H308.298V21H306.298V23ZM279.116 25H306.298V21H279.116V25ZM304.298 23V64H308.298V23H304.298ZM281.116 64V23H277.116V64H281.116Z" fill="white" mask="url(#path-15-inside-8_232_122)"/>
<mask id="path-17-inside-9_232_122" fill="white">
<path d="M135.912 10H163.094V51H135.912V10Z"/>
</mask>
<path d="M135.912 10H163.094V51H135.912V10Z" fill="#AAA3BF"/>
<path d="M135.912 10V8H133.912V10H135.912ZM163.094 10H165.094V8H163.094V10ZM135.912 12H163.094V8H135.912V12ZM161.094 10V51H165.094V10H161.094ZM137.912 51V10H133.912V51H137.912Z" fill="white" mask="url(#path-17-inside-9_232_122)"/>
<mask id="path-19-inside-10_232_122" fill="white">
<path d="M30.4973 25H55.0277V62H30.4973V25Z"/>
</mask>
<path d="M30.4973 25H55.0277V62H30.4973V25Z" fill="#AAA3BF"/>
<path d="M30.4973 25V23H28.4973V25H30.4973ZM55.0277 25H57.0277V23H55.0277V25ZM30.4973 27H55.0277V23H30.4973V27ZM53.0277 25V62H57.0277V25H53.0277ZM32.4973 62V25H28.4973V62H32.4973Z" fill="white" mask="url(#path-19-inside-10_232_122)"/>
<mask id="path-21-inside-11_232_122" fill="white">
<path d="M225.414 33H249.945V70H225.414V33Z"/>
</mask>
<path d="M225.414 33H249.945V70H225.414V33Z" fill="#AAA3BF"/>
<path d="M225.414 33V31H223.414V33H225.414ZM249.945 33H251.945V31H249.945V33ZM225.414 35H249.945V31H225.414V35ZM247.945 33V70H251.945V33H247.945ZM227.414 70V33H223.414V70H227.414Z" fill="white" mask="url(#path-21-inside-11_232_122)"/>
<mask id="path-23-inside-12_232_122" fill="white">
<path d="M304.972 0H329.503V52H304.972V0Z"/>
</mask>
<path d="M304.972 0H329.503V52H304.972V0Z" fill="#AAA3BF"/>
<path d="M304.972 0V-2H302.972V0H304.972ZM329.503 0H331.503V-2H329.503V0ZM304.972 2H329.503V-2H304.972V2ZM327.503 0V52H331.503V0H327.503ZM306.972 52V0H302.972V52H306.972Z" fill="white" mask="url(#path-23-inside-12_232_122)"/>
<mask id="path-25-inside-13_232_122" fill="white">
<path d="M112.707 21H137.238V58H112.707V21Z"/>
</mask>
<path d="M112.707 21H137.238V58H112.707V21Z" fill="#AAA3BF"/>
<path d="M112.707 21V19H110.707V21H112.707ZM137.238 21H139.238V19H137.238V21ZM112.707 23H137.238V19H112.707V23ZM135.238 21V58H139.238V21H135.238ZM114.707 58V21H110.707V58H114.707Z" fill="white" mask="url(#path-25-inside-13_232_122)"/>
<rect width="360" height="813" transform="translate(0 106)" fill="#AAA3BF"/>
<rect width="360" height="66" transform="translate(0 919)" fill="#AAA3BF"/>
<mask id="path-27-inside-14_232_122" fill="white">
<path d="M360 1021L328.177 1021L328.177 973L360 973L360 1021Z"/>
</mask>
<path d="M360 1021L328.177 1021L328.177 973L360 973L360 1021Z" fill="#AAA3BF"/>
<path d="M328.177 1021L326.177 1021L326.177 1023L328.177 1023L328.177 1021ZM360 1019L328.177 1019L328.177 1023L360 1023L360 1019ZM330.177 1021L330.177 973L326.177 973L326.177 1021L330.177 1021Z" fill="white" mask="url(#path-27-inside-14_232_122)"/>
<mask id="path-29-inside-15_232_122" fill="white">
<path d="M193.591 999L161.768 999L161.768 951L193.591 951L193.591 999Z"/>
</mask>
<path d="M193.591 999L161.768 999L161.768 951L193.591 951L193.591 999Z" fill="#AAA3BF"/>
<path d="M193.591 999L193.591 1001L195.591 1001L195.591 999L193.591 999ZM161.768 999L159.768 999L159.768 1001L161.768 1001L161.768 999ZM193.591 997L161.768 997L161.768 1001L193.591 1001L193.591 997ZM163.768 999L163.768 951L159.768 951L159.768 999L163.768 999ZM191.591 951L191.591 999L195.591 999L195.591 951L191.591 951Z" fill="white" mask="url(#path-29-inside-15_232_122)"/>
<mask id="path-31-inside-16_232_122" fill="white">
<path d="M31.8232 995L3.8147e-05 995L4.0929e-05 947L31.8232 947L31.8232 995Z"/>
</mask>
<path d="M31.8232 995L3.8147e-05 995L4.0929e-05 947L31.8232 947L31.8232 995Z" fill="#AAA3BF"/>
<path d="M31.8232 995L31.8232 997L33.8232 997L33.8232 995L31.8232 995ZM31.8232 993L3.82629e-05 993L3.80311e-05 997L31.8232 997L31.8232 993ZM29.8232 947L29.8232 995L33.8232 995L33.8232 947L29.8232 947Z" fill="white" mask="url(#path-31-inside-16_232_122)"/>
<mask id="path-33-inside-17_232_122" fill="white">
<path d="M114.033 1009L79.5581 1009L79.5581 961L114.033 961L114.033 1009Z"/>
</mask>
<path d="M114.033 1009L79.5581 1009L79.5581 961L114.033 961L114.033 1009Z" fill="#AAA3BF"/>
<path d="M114.033 1009L114.033 1011L116.033 1011L116.033 1009L114.033 1009ZM79.5581 1009L77.5581 1009L77.5581 1011L79.5581 1011L79.5581 1009ZM114.033 1007L79.5581 1007L79.5581 1011L114.033 1011L114.033 1007ZM81.5581 1009L81.5581 961L77.5581 961L77.5581 1009L81.5581 1009ZM112.033 961L112.033 1009L116.033 1009L116.033 961L112.033 961Z" fill="white" mask="url(#path-33-inside-17_232_122)"/>
<mask id="path-35-inside-18_232_122" fill="white">
<path d="M306.298 1014L279.116 1014L279.116 973L306.298 973L306.298 1014Z"/>
</mask>
<path d="M306.298 1014L279.116 1014L279.116 973L306.298 973L306.298 1014Z" fill="#AAA3BF"/>
<path d="M306.298 1014L306.298 1016L308.298 1016L308.298 1014L306.298 1014ZM279.116 1014L277.116 1014L277.116 1016L279.116 1016L279.116 1014ZM306.298 1012L279.116 1012L279.116 1016L306.298 1016L306.298 1012ZM281.116 1014L281.116 973L277.116 973L277.116 1014L281.116 1014ZM304.298 973L304.298 1014L308.298 1014L308.298 973L304.298 973Z" fill="white" mask="url(#path-35-inside-18_232_122)"/>
<mask id="path-37-inside-19_232_122" fill="white">
<path d="M329.503 1000L304.972 1000L304.972 963L329.503 963L329.503 1000Z"/>
</mask>
<path d="M329.503 1000L304.972 1000L304.972 963L329.503 963L329.503 1000Z" fill="#AAA3BF"/>
<path d="M329.503 1000L329.503 1002L331.503 1002L331.503 1000L329.503 1000ZM304.972 1000L302.972 1000L302.972 1002L304.972 1002L304.972 1000ZM329.503 998L304.972 998L304.972 1002L329.503 1002L329.503 998ZM306.972 1000L306.972 963L302.972 963L302.972 1000L306.972 1000ZM327.503 963L327.503 1000L331.503 1000L331.503 963L327.503 963Z" fill="white" mask="url(#path-37-inside-19_232_122)"/>
<mask id="path-39-inside-20_232_122" fill="white">
<path d="M137.238 992L112.707 992L112.707 955L137.238 955L137.238 992Z"/>
</mask>
<path d="M137.238 992L112.707 992L112.707 955L137.238 955L137.238 992Z" fill="#AAA3BF"/>
<path d="M137.238 992L137.238 994L139.238 994L139.238 992L137.238 992ZM112.707 992L110.707 992L110.707 994L112.707 994L112.707 992ZM137.238 990L112.707 990L112.707 994L137.238 994L137.238 990ZM114.707 992L114.707 955L110.707 955L110.707 992L114.707 992ZM135.238 955L135.238 992L139.238 992L139.238 955L135.238 955Z" fill="white" mask="url(#path-39-inside-20_232_122)"/>
<mask id="path-41-inside-21_232_122" fill="white">
<path d="M55.0276 1025L30.4972 1025L30.4972 974L55.0276 974L55.0276 1025Z"/>
</mask>
<path d="M55.0276 1025L30.4972 1025L30.4972 974L55.0276 974L55.0276 1025Z" fill="#AAA3BF"/>
<path d="M55.0276 1025L55.0276 1027L57.0276 1027L57.0276 1025L55.0276 1025ZM30.4972 1025L28.4972 1025L28.4972 1027L30.4972 1027L30.4972 1025ZM55.0276 1023L30.4972 1023L30.4972 1027L55.0276 1027L55.0276 1023ZM32.4972 1025L32.4972 974L28.4972 974L28.4972 1025L32.4972 1025ZM53.0276 974L53.0276 1025L57.0276 1025L57.0276 974L53.0276 974Z" fill="white" mask="url(#path-41-inside-21_232_122)"/>
<mask id="path-43-inside-22_232_122" fill="white">
<path d="M249.945 1004L225.414 1004L225.414 967L249.945 967L249.945 1004Z"/>
</mask>
<path d="M249.945 1004L225.414 1004L225.414 967L249.945 967L249.945 1004Z" fill="#AAA3BF"/>
<path d="M249.945 1004L249.945 1006L251.945 1006L251.945 1004L249.945 1004ZM225.414 1004L223.414 1004L223.414 1006L225.414 1006L225.414 1004ZM249.945 1002L225.414 1002L225.414 1006L249.945 1006L249.945 1002ZM227.414 1004L227.414 967L223.414 967L223.414 1004L227.414 1004ZM247.945 967L247.945 1004L251.945 1004L251.945 967L247.945 967Z" fill="white" mask="url(#path-43-inside-22_232_122)"/>
</svg>
