<svg width="360" height="106" viewBox="0 0 360 106" fill="none" xmlns="http://www.w3.org/2000/svg">
<rect width="360" height="66" fill="#AAA3BF"/>
<mask id="path-1-inside-1_160_177" fill="white">
<path d="M360 102L328.177 102L328.177 54.0001L360 54.0001L360 102Z"/>
</mask>
<path d="M360 102L328.177 102L328.177 54.0001L360 54.0001L360 102Z" fill="#AAA3BF"/>
<path d="M328.177 102L326.177 102L326.177 104L328.177 104L328.177 102ZM360 100L328.177 100L328.177 104L360 104L360 100ZM330.177 102L330.177 54.0001L326.177 54.0001L326.177 102L330.177 102Z" fill="white" mask="url(#path-1-inside-1_160_177)"/>
<mask id="path-3-inside-2_160_177" fill="white">
<path d="M193.591 80L161.768 80L161.768 32L193.591 32L193.591 80Z"/>
</mask>
<path d="M193.591 80L161.768 80L161.768 32L193.591 32L193.591 80Z" fill="#AAA3BF"/>
<path d="M193.591 80L193.591 82L195.591 82L195.591 80L193.591 80ZM161.768 80L159.768 80L159.768 82L161.768 82L161.768 80ZM193.591 78L161.768 78L161.768 82L193.591 82L193.591 78ZM163.768 80L163.768 32L159.768 32L159.768 80L163.768 80ZM191.591 32L191.591 80L195.591 80L195.591 32L191.591 32Z" fill="white" mask="url(#path-3-inside-2_160_177)"/>
<mask id="path-5-inside-3_160_177" fill="white">
<path d="M31.8232 76L3.8147e-05 76L4.0929e-05 28L31.8232 28L31.8232 76Z"/>
</mask>
<path d="M31.8232 76L3.8147e-05 76L4.0929e-05 28L31.8232 28L31.8232 76Z" fill="#AAA3BF"/>
<path d="M31.8232 76L31.8232 78L33.8232 78L33.8232 76L31.8232 76ZM31.8232 74L3.82629e-05 74L3.80311e-05 78L31.8232 78L31.8232 74ZM29.8232 28L29.8232 76L33.8232 76L33.8232 28L29.8232 28Z" fill="white" mask="url(#path-5-inside-3_160_177)"/>
<mask id="path-7-inside-4_160_177" fill="white">
<path d="M114.033 90L79.5581 90L79.5581 42L114.033 42L114.033 90Z"/>
</mask>
<path d="M114.033 90L79.5581 90L79.5581 42L114.033 42L114.033 90Z" fill="#AAA3BF"/>
<path d="M114.033 90L114.033 92L116.033 92L116.033 90L114.033 90ZM79.5581 90L77.5581 90L77.5581 92L79.5581 92L79.5581 90ZM114.033 88L79.5581 88L79.5581 92L114.033 92L114.033 88ZM81.5581 90L81.5581 42L77.5581 42L77.5581 90L81.5581 90ZM112.033 42L112.033 90L116.033 90L116.033 42L112.033 42Z" fill="white" mask="url(#path-7-inside-4_160_177)"/>
<mask id="path-9-inside-5_160_177" fill="white">
<path d="M306.298 95.0001L279.116 95.0001L279.116 54.0001L306.298 54.0001L306.298 95.0001Z"/>
</mask>
<path d="M306.298 95.0001L279.116 95.0001L279.116 54.0001L306.298 54.0001L306.298 95.0001Z" fill="#AAA3BF"/>
<path d="M306.298 95.0001L306.298 97.0001L308.298 97.0001L308.298 95.0001L306.298 95.0001ZM279.116 95.0001L277.116 95.0001L277.116 97.0001L279.116 97.0001L279.116 95.0001ZM306.298 93.0001L279.116 93.0001L279.116 97.0001L306.298 97.0001L306.298 93.0001ZM281.116 95.0001L281.116 54.0001L277.116 54.0001L277.116 95.0001L281.116 95.0001ZM304.298 54.0001L304.298 95.0001L308.298 95.0001L308.298 54.0001L304.298 54.0001Z" fill="white" mask="url(#path-9-inside-5_160_177)"/>
<mask id="path-11-inside-6_160_177" fill="white">
<path d="M329.503 81L304.972 81L304.972 44L329.503 44L329.503 81Z"/>
</mask>
<path d="M329.503 81L304.972 81L304.972 44L329.503 44L329.503 81Z" fill="#AAA3BF"/>
<path d="M329.503 81L329.503 83L331.503 83L331.503 81L329.503 81ZM304.972 81L302.972 81L302.972 83L304.972 83L304.972 81ZM329.503 79L304.972 79L304.972 83L329.503 83L329.503 79ZM306.972 81L306.972 44L302.972 44L302.972 81L306.972 81ZM327.503 44L327.503 81L331.503 81L331.503 44L327.503 44Z" fill="white" mask="url(#path-11-inside-6_160_177)"/>
<mask id="path-13-inside-7_160_177" fill="white">
<path d="M137.238 73L112.707 73L112.707 36L137.238 36L137.238 73Z"/>
</mask>
<path d="M137.238 73L112.707 73L112.707 36L137.238 36L137.238 73Z" fill="#AAA3BF"/>
<path d="M137.238 73L137.238 75L139.238 75L139.238 73L137.238 73ZM112.707 73L110.707 73L110.707 75L112.707 75L112.707 73ZM137.238 71L112.707 71L112.707 75L137.238 75L137.238 71ZM114.707 73L114.707 36L110.707 36L110.707 73L114.707 73ZM135.238 36L135.238 73L139.238 73L139.238 36L135.238 36Z" fill="white" mask="url(#path-13-inside-7_160_177)"/>
<mask id="path-15-inside-8_160_177" fill="white">
<path d="M55.0276 106L30.4972 106L30.4972 55L55.0276 55L55.0276 106Z"/>
</mask>
<path d="M55.0276 106L30.4972 106L30.4972 55L55.0276 55L55.0276 106Z" fill="#AAA3BF"/>
<path d="M55.0276 106L55.0276 108L57.0276 108L57.0276 106L55.0276 106ZM30.4972 106L28.4972 106L28.4972 108L30.4972 108L30.4972 106ZM55.0276 104L30.4972 104L30.4972 108L55.0276 108L55.0276 104ZM32.4972 106L32.4972 55L28.4972 55L28.4972 106L32.4972 106ZM53.0276 55L53.0276 106L57.0276 106L57.0276 55L53.0276 55Z" fill="white" mask="url(#path-15-inside-8_160_177)"/>
<mask id="path-17-inside-9_160_177" fill="white">
<path d="M249.945 85L225.414 85L225.414 48L249.945 48L249.945 85Z"/>
</mask>
<path d="M249.945 85L225.414 85L225.414 48L249.945 48L249.945 85Z" fill="#AAA3BF"/>
<path d="M249.945 85L249.945 87L251.945 87L251.945 85L249.945 85ZM225.414 85L223.414 85L223.414 87L225.414 87L225.414 85ZM249.945 83L225.414 83L225.414 87L249.945 87L249.945 83ZM227.414 85L227.414 48L223.414 48L223.414 85L227.414 85ZM247.945 48L247.945 85L251.945 85L251.945 48L247.945 48Z" fill="white" mask="url(#path-17-inside-9_160_177)"/>
</svg>
