<svg width="315" height="101" viewBox="0 0 315 101" fill="none" xmlns="http://www.w3.org/2000/svg">
<g filter="url(#filter0_d_138_405)">
<path d="M258.605 6.81445H220.587V44.9097H258.605V6.81445Z" fill="#A2E88B"/>
<path d="M248.309 18.3192V33.4049H244.842V26.4792L244.956 21.8392H244.91L241.192 33.4049H238.022L234.303 21.8392H234.258L234.372 26.4792V33.4049H230.883V18.3192H236.47L238.843 25.9992L239.687 29.1992H239.732L240.599 26.0221L242.949 18.3192H248.309Z" fill="#414141"/>
<path d="M300.424 6.81445H262.406V44.9097H300.424V6.81445Z" fill="#AE8BE8"/>
<path d="M273.888 19.2792H288.943V26.6163C288.928 28.4754 288.57 29.8468 287.871 30.7306C287.186 31.6144 286.19 32.0563 284.882 32.0563C284.031 32.0563 283.293 31.8049 282.67 31.302C282.062 30.7992 281.674 30.0297 281.506 28.9935H281.484C281.332 30.1516 280.929 31.0125 280.275 31.5763C279.636 32.1554 278.86 32.4449 277.948 32.4449C276.655 32.4449 275.652 31.9877 274.937 31.0735C274.237 30.1592 273.888 28.7877 273.888 26.9592V19.2792ZM276.648 23.0735V26.2963C276.648 27.0125 276.792 27.5458 277.081 27.8963C277.37 28.2468 277.788 28.422 278.336 28.422C278.868 28.422 279.271 28.2468 279.545 27.8963C279.834 27.5458 279.978 27.0125 279.978 26.2963V23.0735H276.648ZM282.784 23.0735V25.9306C282.784 27.3325 283.331 28.0335 284.426 28.0335C285.521 28.0335 286.069 27.3325 286.069 25.9306V23.0735H282.784Z" fill="#414141"/>
<path d="M258.605 48.7192H220.587V86.8145H258.605V48.7192Z" fill="#8BD7E8"/>
<path d="M232.069 60.8755H235.102V65.7898H247.123V69.7212H235.102V74.6583H232.069V60.8755Z" fill="#414141"/>
<path d="M300.424 48.7192H262.406V86.8145H300.424V48.7192Z" fill="#E8E58A"/>
<path d="M283.377 60.224V75.3097H279.453V60.224H283.377Z" fill="#414141"/>
<path d="M19.4883 33.762C21.7967 33.762 23.7631 34.0934 25.3875 34.7563C27.0119 35.4193 28.2516 36.3754 29.1066 37.6247C29.9615 38.8739 30.389 40.3911 30.389 42.1758C30.389 43.9605 29.9615 45.4776 29.1066 46.7269C28.2516 47.9762 27.0119 48.9323 25.3875 49.5953C23.7631 50.2582 21.7967 50.5896 19.4883 50.5896H13.8883V59.0034H6.53564V33.762H19.4883ZM18.3341 45.6561C19.873 45.6561 21.0272 45.3755 21.7967 44.8147C22.5946 44.2282 22.9936 43.3486 22.9936 42.1758C22.9936 41.003 22.5946 40.136 21.7967 39.5752C21.0272 38.9887 19.873 38.6955 18.3341 38.6955H13.8883V45.6561H18.3341Z" fill="#232C2F"/>
<path d="M48.5555 33.762C51.9182 33.762 54.5259 34.4758 56.3783 35.9037C58.2593 37.3059 59.1997 39.1799 59.1997 41.5256C59.1997 44.1008 58.2734 46.0639 56.4211 47.4153C54.5686 48.7667 51.961 49.4423 48.5982 49.4423L47.9142 49.7865H42.3143V59.0034H35.0898V33.762H48.5555ZM47.5295 45.1206C48.9543 45.1206 50.023 44.8657 50.7356 44.3557C51.448 43.8457 51.8043 43.03 51.8043 41.9081C51.8043 40.8118 51.448 40.0087 50.7356 39.4987C50.023 38.9887 48.9543 38.7338 47.5295 38.7338H42.3143V45.1206H47.5295ZM51.8471 46.4974L60.8669 59.0034H52.7448L45.5204 47.9507L51.8471 46.4974Z" fill="#232C2F"/>
<path d="M76.9238 33.3795C79.7738 33.3795 82.2246 33.9021 84.2765 34.9475C86.357 35.9673 87.9528 37.4463 89.0643 39.3839C90.1757 41.3216 90.7314 43.6545 90.7314 46.3827C90.7314 49.1109 90.1757 51.4438 89.0643 53.3815C87.9528 55.3191 86.357 56.8107 84.2765 57.8561C82.2246 58.8759 79.7738 59.3859 76.9238 59.3859C74.074 59.3859 71.609 58.8759 69.5284 57.8561C67.4481 56.8107 65.8521 55.3191 64.7407 53.3815C63.6292 51.4438 63.0735 49.1109 63.0735 46.3827C63.0735 43.6545 63.6292 41.3216 64.7407 39.3839C65.8521 37.4463 67.4481 35.9673 69.5284 34.9475C71.609 33.9021 74.074 33.3795 76.9238 33.3795ZM76.9238 38.5425C75.5559 38.5425 74.4017 38.8357 73.4612 39.4222C72.5208 40.0087 71.8084 40.8883 71.3238 42.0611C70.8395 43.2084 70.5971 44.6489 70.5971 46.3827C70.5971 48.0909 70.8395 49.5316 71.3238 50.7043C71.8084 51.8771 72.5208 52.7567 73.4612 53.3432C74.4017 53.9297 75.5559 54.2229 76.9238 54.2229C78.2918 54.2229 79.4319 53.9297 80.3437 53.3432C81.2841 52.7567 81.9967 51.8771 82.4811 50.7043C82.9656 49.5316 83.2078 48.0909 83.2078 46.3827C83.2078 44.6489 82.9656 43.2084 82.4811 42.0611C81.9967 40.8883 81.2841 40.0087 80.3437 39.4222C79.4319 38.8357 78.2918 38.5425 76.9238 38.5425Z" fill="#232C2F"/>
<path d="M116.479 33.762V49.2893C116.479 52.4764 115.453 54.9623 113.401 56.747C111.349 58.5063 108.442 59.3859 104.68 59.3859C101.916 59.3859 99.6932 58.9524 98.0117 58.0856C96.3302 57.1931 95.176 55.9693 94.5491 54.4141C93.9222 52.8332 93.794 51.0357 94.1644 49.0216L101.346 47.8742C101.004 50.1944 101.118 51.8389 101.688 52.8078C102.286 53.7511 103.37 54.2229 104.937 54.2229C106.476 54.2229 107.559 53.7639 108.186 52.846C108.813 51.9282 109.126 50.5131 109.126 48.6009V33.762H116.479Z" fill="#232C2F"/>
<path d="M122.214 59.0034V33.762H144.187V38.8485H129.567V43.9733H141.194V48.7539H129.567V53.9169H144.742V59.0034H122.214Z" fill="#232C2F"/>
<path d="M173.939 51.7752C173.398 53.5345 172.528 54.9878 171.332 56.1351C170.135 57.257 168.71 58.0856 167.057 58.621C165.404 59.131 163.58 59.3859 161.585 59.3859C158.735 59.3859 156.27 58.8759 154.19 57.8561C152.109 56.8107 150.513 55.3191 149.402 53.3815C148.29 51.4438 147.735 49.1109 147.735 46.3827C147.735 43.6545 148.29 41.3216 149.402 39.3839C150.513 37.4463 152.109 35.9673 154.19 34.9475C156.27 33.9021 158.721 33.3795 161.542 33.3795C163.509 33.3795 165.318 33.6344 166.971 34.1444C168.624 34.6288 170.021 35.3811 171.161 36.4008C172.3 37.4206 173.113 38.7338 173.597 40.34L167.142 42.673C166.743 41.0921 166.088 40.0087 165.176 39.4222C164.292 38.8357 163.167 38.5425 161.799 38.5425C160.459 38.5425 159.291 38.8357 158.293 39.4222C157.324 40.0087 156.569 40.8883 156.028 42.0611C155.515 43.2084 155.258 44.6489 155.258 46.3827C155.258 48.0909 155.5 49.5316 155.985 50.7043C156.47 51.8771 157.196 52.7567 158.165 53.3432C159.163 53.9297 160.388 54.2229 161.841 54.2229C163.209 54.2229 164.364 53.8915 165.304 53.2285C166.273 52.5401 166.928 51.4947 167.27 50.0924L173.939 51.7752Z" fill="#232C2F"/>
<path d="M201.754 33.762V38.8485H192.563V59.0034H185.21V38.8485H175.977V33.762H201.754Z" fill="#232C2F"/>
</g>
<defs>
<filter id="filter0_d_138_405" x="0.535645" y="0.814453" width="313.888" height="103.936" filterUnits="userSpaceOnUse" color-interpolation-filters="sRGB">
<feFlood flood-opacity="0" result="BackgroundImageFix"/>
<feColorMatrix in="SourceAlpha" type="matrix" values="0 0 0 0 0 0 0 0 0 0 0 0 0 0 0 0 0 0 127 0" result="hardAlpha"/>
<feOffset dx="4" dy="4"/>
<feGaussianBlur stdDeviation="5"/>
<feComposite in2="hardAlpha" operator="out"/>
<feColorMatrix type="matrix" values="0 0 0 0 0 0 0 0 0 0 0 0 0 0 0 0 0 0 0.25 0"/>
<feBlend mode="normal" in2="BackgroundImageFix" result="effect1_dropShadow_138_405"/>
<feBlend mode="normal" in="SourceGraphic" in2="effect1_dropShadow_138_405" result="shape"/>
</filter>
</defs>
</svg>
